<?xml version="1.0" encoding="UTF-8"?>
<svg version="1.1" xmlns="http://www.w3.org/2000/svg" width="1024" height="1024">
<path d="M0 0 C1.27417786 -0.00705963 2.54835571 -0.01411926 3.86114502 -0.02139282 C7.95170669 -0.04092196 12.04220858 -0.04608484 16.1328125 -0.046875 C17.17844486 -0.04731686 17.17844486 -0.04731686 18.24520111 -0.04776764 C38.72820107 -0.04916661 58.95780909 0.11844089 79.2578125 3.203125 C80.69446418 3.41478523 82.1311523 3.62619815 83.56787109 3.83740234 C174.68429563 17.38760931 260.56100798 54.24412046 330.2578125 115.203125 C330.98742187 115.83347656 331.71703125 116.46382813 332.46875 117.11328125 C334.40989607 118.7973981 336.33432421 120.49887791 338.2578125 122.203125 C338.95535645 122.81583252 339.65290039 123.42854004 340.37158203 124.05981445 C346.91138594 129.86346242 353.14082232 135.93170245 359.30883789 142.1237793 C360.95021046 143.77053904 362.59690069 145.41184595 364.24414062 147.05273438 C369.79199851 152.59683305 375.19301891 158.20899566 380.2578125 164.203125 C381.1034375 165.16734375 381.9490625 166.1315625 382.8203125 167.125 C391.13628655 176.77366219 398.73424841 186.92966671 406.2578125 197.203125 C406.79583496 197.9357959 407.33385742 198.6684668 407.88818359 199.42333984 C419.91793845 215.88450646 430.55631667 233.27914177 440.2578125 251.203125 C440.69915527 252.00814453 441.14049805 252.81316406 441.59521484 253.64257812 C470.64766452 306.82738486 488.60603748 365.99789027 495.2578125 426.203125 C495.34394806 426.97263489 495.43008362 427.74214478 495.51882935 428.53497314 C497.37131908 445.58688027 497.61890634 462.56340189 497.5703125 479.703125 C497.56809005 481.08949781 497.56591354 482.4758707 497.56378174 483.86224365 C497.52203952 503.45320554 497.20745237 522.79183453 494.2578125 542.203125 C494.04615227 543.63977668 493.83473935 545.0764648 493.62353516 546.51318359 C482.46203692 621.56707866 455.92296048 694.37189403 411.2578125 756.203125 C410.72865234 756.94191895 410.19949219 757.68071289 409.65429688 758.44189453 C399.09928069 773.14526339 387.97064202 787.35265891 375.63671875 800.61328125 C373.78290543 802.63147211 371.99836966 804.67590716 370.21875 806.7578125 C365.68340242 811.95734507 360.80108876 816.80976606 355.9152832 821.67602539 C354.32322284 823.26272446 352.7365826 824.85470242 351.15039062 826.44726562 C345.69243478 831.90910954 340.15937019 837.21760005 334.2578125 842.203125 C333.24803908 843.07997103 332.23888519 843.95753122 331.23046875 844.8359375 C322.50131472 852.31137411 313.46949323 859.33322592 304.2578125 866.203125 C303.52900879 866.74759277 302.80020508 867.29206055 302.04931641 867.85302734 C284.30018976 881.05210164 265.61854995 892.52770847 246.2578125 903.203125 C245.37174316 903.69280762 244.48567383 904.18249023 243.57275391 904.68701172 C180.699379 939.15202999 106.45127407 960.1403715 34.515625 960.40625 C33.24144714 960.41330963 31.96726929 960.42036926 30.65447998 960.42764282 C26.56391831 960.44717196 22.47341642 960.45233484 18.3828125 960.453125 C17.33718014 960.45356686 17.33718014 960.45356686 16.27042389 960.45401764 C-4.21257607 960.45541661 -24.44218409 960.28780911 -44.7421875 957.203125 C-46.17883918 956.99146477 -47.6155273 956.78005185 -49.05224609 956.56884766 C-124.10614116 945.40734942 -196.91095653 918.86827298 -258.7421875 874.203125 C-259.48098145 873.67396484 -260.21977539 873.14480469 -260.98095703 872.59960938 C-275.68432589 862.04459319 -289.89172141 850.91595452 -303.15234375 838.58203125 C-304.54594944 837.3019319 -305.94669967 836.02856219 -307.38598633 834.80004883 C-313.43063545 829.63944633 -319.03718685 824.0600327 -324.64233398 818.43334961 C-326.3014607 816.76886223 -327.96586801 815.10979053 -329.63085938 813.45117188 C-335.21118602 807.87459636 -340.64910523 802.23360572 -345.7421875 796.203125 C-346.5878125 795.23890625 -347.4334375 794.2746875 -348.3046875 793.28125 C-356.62066155 783.63258781 -364.21862341 773.47658329 -371.7421875 763.203125 C-372.54922119 762.10411865 -372.54922119 762.10411865 -373.37255859 760.98291016 C-432.6394992 679.88375262 -463.33880081 580.8384236 -463.0546875 480.765625 C-463.05246494 479.38121549 -463.05028843 477.9968059 -463.04815674 476.61239624 C-463.00562434 456.67330574 -462.70316932 436.96132996 -459.7421875 417.203125 C-459.6403717 416.51720276 -459.53855591 415.83128052 -459.43365479 415.12457275 C-450.45684486 355.0285559 -431.91724046 298.63446166 -402.7421875 245.203125 C-402.12126221 244.06520508 -402.12126221 244.06520508 -401.48779297 242.90429688 C-386.56667189 215.89876975 -368.02659425 190.39507741 -347.7421875 167.203125 C-347.11183594 166.47351563 -346.48148437 165.74390625 -345.83203125 164.9921875 C-344.1479144 163.05104143 -342.44643459 161.12661329 -340.7421875 159.203125 C-340.12947998 158.50558105 -339.51677246 157.80803711 -338.88549805 157.08935547 C-333.08185008 150.54955156 -327.01361005 144.32011518 -320.8215332 138.15209961 C-319.17477346 136.51072704 -317.53346655 134.86403681 -315.89257812 133.21679688 C-310.34847945 127.66893899 -304.73631684 122.26791859 -298.7421875 117.203125 C-297.77796875 116.3575 -296.81375 115.511875 -295.8203125 114.640625 C-286.17165031 106.32465095 -276.01564579 98.72668909 -265.7421875 91.203125 C-264.64318115 90.39609131 -264.64318115 90.39609131 -263.52197266 89.57275391 C-188.6876705 34.8841446 -93.2364522 0.34460755 0 0 Z M-36.7421875 239.203125 C-38.20205078 239.46851074 -38.20205078 239.46851074 -39.69140625 239.73925781 C-71.60412124 245.71515108 -101.06985727 257.45839391 -124.7421875 280.203125 C-125.44939941 280.86368896 -125.44939941 280.86368896 -126.17089844 281.53759766 C-149.9680875 303.79423999 -165.34316927 335.11512385 -166.91918945 367.88330078 C-167.47690232 402.15042342 -164.24191946 435.29136652 -140.7421875 462.203125 C-140.22527344 462.863125 -139.70835937 463.523125 -139.17578125 464.203125 C-107.55214054 503.51471847 -42.0659453 511.09956307 4.078125 521.2578125 C5.25953568 521.51835922 6.44094635 521.77890594 7.65815735 522.04734802 C13.43359063 523.31989611 19.21064957 524.58368566 24.99194336 525.8293457 C35.97720485 528.2157151 46.87153653 530.80223682 57.703125 533.81640625 C58.70485245 534.09421432 59.7065799 534.3720224 60.73866272 534.6582489 C100.62045053 546.01131796 100.62045053 546.01131796 109.9765625 562.171875 C116.49164267 574.83325722 117.60256899 589.48575051 113.6953125 603.328125 C108.26320711 617.97777509 98.52033689 627.74180391 84.62182617 634.45458984 C54.13909195 648.37161741 11.63149716 650.24554545 -20.7421875 642.203125 C-21.44053711 642.03151855 -22.13888672 641.85991211 -22.85839844 641.68310547 C-36.93051522 638.06650035 -49.98024994 632.15064566 -60.7421875 622.203125 C-61.36480469 621.63464844 -61.98742187 621.06617188 -62.62890625 620.48046875 C-75.45343724 607.36774605 -79.32371264 587.29549929 -82.7421875 570.203125 C-113.1021875 570.203125 -143.4621875 570.203125 -174.7421875 570.203125 C-174.7421875 578.09188366 -174.60009759 585.30144323 -173.4921875 593.015625 C-173.35723877 593.96775879 -173.22229004 594.91989258 -173.08325195 595.90087891 C-171.89427173 603.8808561 -170.21934305 611.51046167 -167.7421875 619.203125 C-167.53754883 619.83879395 -167.33291016 620.47446289 -167.12207031 621.12939453 C-157.47170905 650.43389214 -137.33360161 674.29053828 -111.7421875 691.203125 C-110.85394287 691.79383789 -110.85394287 691.79383789 -109.94775391 692.39648438 C-71.30505931 717.71301515 -24.44123805 724.67183956 20.8828125 724.515625 C21.98243317 724.51380219 23.08205383 724.51197937 24.21499634 724.51010132 C40.40120888 724.46494801 56.29138688 724.1161877 72.2578125 721.203125 C73.22493164 721.03151855 74.19205078 720.85991211 75.18847656 720.68310547 C102.84007389 715.61892586 129.55443072 706.07367728 152.2578125 689.203125 C153.19367188 688.50960938 154.12953125 687.81609375 155.09375 687.1015625 C184.14980853 664.3509243 203.95858152 632.81744626 208.54345703 595.90332031 C211.04091498 573.05537768 209.26462105 549.81674214 201.2578125 528.203125 C200.8659375 527.12675781 200.4740625 526.05039062 200.0703125 524.94140625 C189.07050782 496.68203963 165.13434631 477.4600058 138.2578125 465.203125 C134.41527955 463.55075516 130.54012555 462.00788948 126.6328125 460.515625 C125.77187988 460.18361084 124.91094727 459.85159668 124.02392578 459.50952148 C98.59692069 450.18658807 71.64398637 444.94188034 45.3203125 438.828125 C1.52582129 428.65408063 1.52582129 428.65408063 -16.41607857 423.97294235 C-17.80533698 423.6105512 -19.19524012 423.25061926 -20.58588982 422.89360428 C-39.79417394 417.94329362 -62.34973822 411.98251326 -73.0546875 393.953125 C-78.74414211 382.74155269 -78.88306872 370.15489258 -75.98828125 358.05078125 C-70.97446298 343.09323971 -60.49884301 333.00612766 -46.62744141 326.08300781 C-16.56389011 312.05179325 23.6046535 312.59729082 54.59765625 323.36328125 C57.54445886 324.5427608 60.39849571 325.82611691 63.2578125 327.203125 C64.16789063 327.62078125 65.07796875 328.0384375 66.015625 328.46875 C82.39620571 336.58903787 92.22909202 350.25753231 98.2578125 367.203125 C99.5778125 373.473125 100.8978125 379.743125 102.2578125 386.203125 C132.6178125 386.203125 162.9778125 386.203125 194.2578125 386.203125 C194.2578125 352.68572191 183.02251764 318.23384214 160.2578125 293.203125 C159.52183838 292.39343262 159.52183838 292.39343262 158.77099609 291.56738281 C146.22901332 277.95432162 131.5379465 267.87078893 115.2578125 259.203125 C113.618125 258.31367188 113.618125 258.31367188 111.9453125 257.40625 C94.63320772 248.34945444 76.34634553 243.091473 57.2578125 239.203125 C56.39430176 239.02233398 55.53079102 238.84154297 54.64111328 238.65527344 C25.87665127 232.94213449 -7.96167878 233.86613683 -36.7421875 239.203125 Z " fill="#E53834" transform="translate(494.7421875,31.796875)"/>
</svg>
